<?xml version='1.0' encoding='UTF-8'?>
<mxfile host="app.diagrams.net">
  <diagram name="Activity Diagram" id="activity-diagram">
    <mxGraphModel dx="1228" dy="781" grid="1" gridSize="10">
      <root>
        <mxCell id="0"/>
        <mxCell id="1" parent="0"/>
        <mxCell id="24" style="ellipse;fillColor=black;" vertex="1" parent="1">
          <mxGeometry x="40" y="20" width="20" height="20" as="geometry"/>
        </mxCell>
        <mxCell id="25" value="Login / Sign Up" style="rounded=1;whiteSpace=wrap;" vertex="1" parent="1">
          <mxGeometry x="20" y="60" width="100" height="40" as="geometry"/>
        </mxCell>
        <mxCell id="26" value="Home Screen" style="rounded=1;whiteSpace=wrap;" vertex="1" parent="1">
          <mxGeometry x="20" y="120" width="100" height="40" as="geometry"/>
        </mxCell>
        <mxCell id="27" value="Choose Action" style="rhombus;" vertex="1" parent="1">
          <mxGeometry x="20" y="180" width="60" height="60" as="geometry"/>
        </mxCell>
        <mxCell id="28" value="Send Money" style="rounded=1;whiteSpace=wrap;" vertex="1" parent="1">
          <mxGeometry x="120" y="180" width="100" height="40" as="geometry"/>
        </mxCell>
        <mxCell id="29" value="Pay Bills" style="rounded=1;whiteSpace=wrap;" vertex="1" parent="1">
          <mxGeometry x="120" y="240" width="100" height="40" as="geometry"/>
        </mxCell>
        <mxCell id="30" value="Confirm Payment" style="rounded=1;whiteSpace=wrap;" vertex="1" parent="1">
          <mxGeometry x="120" y="300" width="120" height="40" as="geometry"/>
        </mxCell>
        <mxCell id="31" value="Success Screen" style="rounded=1;whiteSpace=wrap;" vertex="1" parent="1">
          <mxGeometry x="120" y="360" width="120" height="40" as="geometry"/>
        </mxCell>
        <mxCell id="32" style="ellipse;whiteSpace=wrap;html=1;fillColor=black;" vertex="1" parent="1">
          <mxGeometry x="140" y="420" width="20" height="20" as="geometry"/>
        </mxCell>
        <mxCell id="33" style="endArrow=block;" edge="1" parent="1" source="24" target="25"><mxGeometry relative="1" as="geometry"/></mxCell>
        <mxCell id="34" style="endArrow=block;" edge="1" parent="1" source="25" target="26"><mxGeometry relative="1" as="geometry"/></mxCell>
        <mxCell id="35" style="endArrow=block;" edge="1" parent="1" source="26" target="27"><mxGeometry relative="1" as="geometry"/></mxCell>
        <mxCell id="36" style="endArrow=block;" edge="1" parent="1" source="27" target="28"><mxGeometry relative="1" as="geometry"/></mxCell>
        <mxCell id="37" style="endArrow=block;" edge="1" parent="1" source="27" target="29"><mxGeometry relative="1" as="geometry"/></mxCell>
        <mxCell id="38" style="endArrow=block;" edge="1" parent="1" source="29" target="30"><mxGeometry relative="1" as="geometry"/></mxCell>
        <mxCell id="39" style="endArrow=block;" edge="1" parent="1" source="30" target="31"><mxGeometry relative="1" as="geometry"/></mxCell>
        <mxCell id="40" style="endArrow=block;" edge="1" parent="1" source="31" target="32"><mxGeometry relative="1" as="geometry"/></mxCell>
      </root>
    </mxGraphModel>
  </diagram>
</mxfile>
